# xmcd
# Copyright (C) 1995-1998 Ti Kan
#
# Track frame offsets:
#       150
#       21547
#       38882
#       57622
#       88725
#       109007
#       135159
#       162063
#
# Disc length: 2408 seconds
#
# Revision: 0
# Processed by: cddbd v1.5.2PL0 Copyright (c) Steve Scherf et al.
# Submitted via: CD-Transfer v1.0
#
DISCID=64096608
DTITLE=Dj Gerry Nicht!! - 
DYEAR=1900
DGENRE=
TTITLE0=Gerry1
TTITLE1=Gerry2
TTITLE2=Gerry3
TTITLE3=Gerry4
TTITLE4=Gerry5
TTITLE5=Gerry6
TTITLE6=Gerry7
TTITLE7=Gerry8
EXTD=
EXTT0=
EXTT1=
EXTT2=
EXTT3=
EXTT4=
EXTT5=
EXTT6=
EXTT7=
PLAYORDER=
